<svg width="80.000000" height="80.000000" viewBox="0 0 80 80" fill="none" xmlns="http://www.w3.org/2000/svg" xmlns:xlink="http://www.w3.org/1999/xlink">
	<desc>
			Created with Pixso.
	</desc>
	<defs>
		<clipPath id="clip35_1415">
			<rect width="80.000000" height="80.000000" fill="white" fill-opacity="0"/>
		</clipPath>
	</defs>
	<rect width="80.000000" height="80.000000" fill="#FFFFFF" fill-opacity="0"/>
	<g clip-path="url(#clip35_1415)">
		<path d="M71.3281 62.1096C71.3281 63.8777 70.6257 65.5732 69.3755 66.8235C68.1252 68.0737 66.4297 68.7761 64.6614 68.7761C62.8933 68.7761 61.1978 68.0737 59.9475 66.8235C58.6973 65.5732 57.9949 63.8777 57.9949 62.1096C57.9949 60.3413 58.6973 58.6458 59.9475 57.3955C61.1978 56.1453 62.8933 55.4429 64.6614 55.4429C66.4297 55.4429 68.1252 56.1453 69.3755 57.3955C70.6257 58.6458 71.3281 60.3413 71.3281 62.1096ZM31.3281 62.1096C31.3281 63.8777 30.6257 65.5732 29.3755 66.8235C28.1252 68.0737 26.4297 68.7761 24.6614 68.7761C22.8933 68.7761 21.1978 68.0737 19.9475 66.8235C18.6973 65.5732 17.9949 63.8777 17.9949 62.1096C17.9949 60.3413 18.6973 58.6458 19.9475 57.3955C21.1978 56.1453 22.8933 55.4429 24.6614 55.4429C26.4297 55.4429 28.1252 56.1453 29.3755 57.3955C30.6257 58.6458 31.3281 60.3413 31.3281 62.1096Z" fill="#FF8922" fill-opacity="1.000000" fill-rule="nonzero"/>
		<path d="M71.3281 62.1094L76.0417 62.1094C77.1204 62.1094 77.9949 61.2349 77.9949 60.1562L77.9949 25.4426C77.9949 24.5586 77.6438 23.7107 77.0186 23.0857C76.3936 22.4604 75.5457 22.1094 74.6616 22.1094L27.9949 22.1094C23.5747 22.1094 19.3354 24.5676 16.2097 28.9436C13.0842 33.3193 11.3281 39.2544 11.3281 45.4426L11.3281 60.1562C11.3281 61.2349 12.2026 62.1094 13.2812 62.1094L17.9949 62.1094L71.3281 62.1094ZM31.3281 62.1094L57.9949 62.1094L31.3281 62.1094Z" fill="#FF8922" fill-opacity="1.000000" fill-rule="nonzero"/>
		<path d="M65.5151 51.1516C64.0525 49.689 62.0686 48.8672 60 48.8672C57.9316 48.8672 55.9478 49.689 54.4851 51.1516C53.0222 52.6143 52.2007 54.5981 52.2007 56.6667C52.2007 58.7351 53.0222 60.719 54.4851 62.1816C55.9478 63.6445 57.9316 64.4661 60 64.4661C62.0686 64.4661 64.0525 63.6445 65.5151 62.1816C66.9778 60.719 67.7996 58.7351 67.7996 56.6667C67.7996 54.5981 66.9778 52.6143 65.5151 51.1516ZM60 51.1328C61.4678 51.1328 62.8752 51.7158 63.9131 52.7537C64.9509 53.7915 65.5339 55.199 65.5339 56.6667C65.5339 58.1343 64.9509 59.542 63.9131 60.5796C62.8752 61.6174 61.4678 62.2004 60 62.2004C58.5325 62.2004 57.1248 61.6174 56.0872 60.5796C55.0493 59.542 54.4663 58.1343 54.4663 56.6667C54.4663 55.199 55.0493 53.7915 56.0872 52.7537C57.1248 51.7158 58.5325 51.1328 60 51.1328ZM25.5151 51.1516C24.0525 49.689 22.0686 48.8672 20 48.8672C17.9316 48.8672 15.9478 49.689 14.4851 51.1516C13.0222 52.6143 12.2007 54.5981 12.2007 56.6667C12.2007 58.7351 13.0222 60.719 14.4851 62.1816C15.9478 63.6445 17.9316 64.4661 20 64.4661C22.0686 64.4661 24.0525 63.6445 25.5151 62.1816C26.9778 60.719 27.7996 58.7351 27.7996 56.6667C27.7996 54.5981 26.9778 52.6143 25.5151 51.1516ZM20 51.1328C21.4678 51.1328 22.8752 51.7158 23.9131 52.7537C24.9509 53.7915 25.5339 55.199 25.5339 56.6667C25.5339 58.1343 24.9509 59.542 23.9131 60.5796C22.8752 61.6174 21.4678 62.2004 20 62.2004C18.5325 62.2004 17.1248 61.6174 16.0872 60.5796C15.0493 59.542 14.4663 58.1343 14.4663 56.6667C14.4663 55.199 15.0493 53.7915 16.0872 52.7537C17.1248 51.7158 18.5325 51.1328 20 51.1328Z" fill="#2F2F2F" fill-opacity="1.000000" fill-rule="evenodd"/>
		<path d="M70.0002 17.7993C70.5837 17.7993 71.1436 18.0312 71.5562 18.4438C71.9688 18.8564 72.2007 19.4163 72.2007 19.9998L72.2007 23.5007C72.2007 24.1262 72.7078 24.6335 73.3335 24.6335C73.9592 24.6335 74.4663 24.1262 74.4663 23.5007L74.4663 19.9998C74.4663 18.8154 73.9958 17.6794 73.1582 16.8418C72.3206 16.0042 71.1846 15.5337 70.0002 15.5337L23.3335 15.5337C18.4663 15.5337 13.9128 18.2415 10.6265 22.8423C7.34375 27.4382 5.53394 33.6123 5.53394 39.9998L5.53394 42.5779C5.53394 43.2036 6.04126 43.7107 6.66675 43.7107C7.29248 43.7107 7.79956 43.2036 7.79956 42.5779L7.79956 39.9998C7.79956 34.0107 9.50171 28.3149 12.4702 24.1592C15.4351 20.0081 19.3601 17.7993 23.3335 17.7993L70.0002 17.7993ZM73.3335 28.1248C72.7078 28.1248 72.2007 28.6321 72.2007 29.2576L72.2007 55.104C72.2007 55.3413 72.0083 55.5337 71.771 55.5337L66.6667 55.5337C66.0413 55.5337 65.5339 56.0408 65.5339 56.6665C65.5339 57.2922 66.0413 57.7993 66.6667 57.7993L71.771 57.7993C73.2595 57.7993 74.4663 56.5925 74.4663 55.104L74.4663 29.2576C74.4663 28.6321 73.9592 28.1248 73.3335 28.1248ZM6.66675 46.9529C6.04126 46.9529 5.53394 47.4602 5.53394 48.0857L5.53394 55.104C5.53394 56.5925 6.74072 57.7993 8.22925 57.7993L13.3335 57.7993C13.9592 57.7993 14.4663 57.2922 14.4663 56.6665C14.4663 56.0408 13.9592 55.5337 13.3335 55.5337L8.22925 55.5337C7.99194 55.5337 7.79956 55.3413 7.79956 55.104L7.79956 48.0857C7.79956 47.4602 7.29248 46.9529 6.66675 46.9529ZM54.4663 56.6665C54.4663 56.0408 53.9592 55.5337 53.3335 55.5337L26.6667 55.5337C26.0413 55.5337 25.5339 56.0408 25.5339 56.6665C25.5339 57.2922 26.0413 57.7993 26.6667 57.7993L53.3335 57.7993C53.9592 57.7993 54.4663 57.2922 54.4663 56.6665Z" fill="#2F2F2F" fill-opacity="1.000000" fill-rule="evenodd"/>
		<path d="M26.9043 15.5591C26.2925 15.428 25.6902 15.8176 25.5591 16.4294L20.8237 38.5276C20.7812 38.7258 20.6062 38.8672 20.4036 38.8672L6.66675 38.8672C6.04126 38.8672 5.53394 39.3745 5.53394 40C5.53394 40.6257 6.04126 41.1328 6.66675 41.1328L20.4036 41.1328C21.6746 41.1328 22.7729 40.2451 23.0391 39.0024L24.0112 34.4663L73.3335 34.4663C73.9592 34.4663 74.4663 33.959 74.4663 33.3335C74.4663 32.7078 73.9592 32.2007 73.3335 32.2007L57.7996 32.2007L57.7996 16.6667C57.7996 16.041 57.2925 15.5339 56.6667 15.5339C56.0413 15.5339 55.5339 16.041 55.5339 16.6667L55.5339 32.2007L41.1331 32.2007L41.1331 16.6667C41.1331 16.041 40.6257 15.5339 40.0002 15.5339C39.3745 15.5339 38.8674 16.041 38.8674 16.6667L38.8674 32.2007L24.4966 32.2007L27.7744 16.9041C27.9055 16.2922 27.5159 15.6902 26.9043 15.5591Z" fill="#2F2F2F" fill-opacity="1.000000" fill-rule="evenodd"/>
	</g>
</svg>
