<svg width="80.000000" height="80.000000" viewBox="0 0 80 80" fill="none" xmlns="http://www.w3.org/2000/svg" xmlns:xlink="http://www.w3.org/1999/xlink">
	<desc>
			Created with Pixso.
	</desc>
	<defs>
		<clipPath id="clip35_1377">
			<rect width="80.000000" height="80.000000" fill="white" fill-opacity="0"/>
		</clipPath>
	</defs>
	<rect width="80.000000" height="80.000000" fill="#FFFFFF" fill-opacity="0"/>
	<g clip-path="url(#clip35_1377)">
		<path d="M26.7886 24.8906L26.7886 15.2925L26.7886 24.8906ZM41.1858 24.8906L41.1858 5.69434L41.1858 24.8906Z" fill="#FF8922" fill-opacity="1.000000" fill-rule="nonzero"/>
		<path d="M41.1855 4.63965C41.7678 4.63965 42.24 5.11182 42.24 5.69409L42.24 24.8904C42.24 25.4727 41.7678 25.9448 41.1855 25.9448C40.6033 25.9448 40.1311 25.4727 40.1311 24.8904L40.1311 5.69409C40.1311 5.11182 40.6033 4.63965 41.1855 4.63965ZM26.7883 14.2378C27.3708 14.2378 27.8428 14.71 27.8428 15.2922L27.8428 24.8904C27.8428 25.4727 27.3708 25.9448 26.7883 25.9448C26.2061 25.9448 25.7339 25.4727 25.7339 24.8904L25.7339 15.2922C25.7339 14.71 26.2061 14.2378 26.7883 14.2378Z" fill="#FF8922" fill-opacity="1.000000" fill-rule="evenodd"/>
		<path d="M60.3821 36.8882L60.3821 60.8835C60.3821 64.7019 58.8652 68.364 56.165 71.064C53.4651 73.7639 49.8032 75.2808 45.9849 75.2808L21.9895 75.2808C18.1711 75.2808 14.509 73.7639 11.8091 71.064C9.10913 68.364 7.59229 64.7019 7.59229 60.8835L7.59229 36.8882C7.59229 35.6155 8.0979 34.3948 8.9978 33.4949C9.89795 32.5947 11.1187 32.0891 12.3914 32.0891L55.583 32.0891C56.8557 32.0891 58.0764 32.5947 58.9763 33.4949C59.8765 34.3948 60.3821 35.6155 60.3821 36.8882ZM60.3821 36.8882L69.9802 36.8882C71.2529 36.8882 72.4736 37.3938 73.3735 38.2939C74.2734 39.1938 74.7791 40.4146 74.7791 41.6873L74.7791 51.2854C74.7791 52.5581 74.2734 53.7788 73.3735 54.679C72.4736 55.5789 71.2529 56.0845 69.9802 56.0845L60.3821 56.0845L60.3821 36.8882ZM26.7886 24.8906L26.7886 15.2925L26.7886 24.8906ZM41.1858 24.8906L41.1858 5.69434L41.1858 24.8906Z" fill="#FF8922" fill-opacity="1.000000" fill-rule="nonzero"/>
		<path d="M36.8367 0.667969C37.3997 0.667969 37.856 1.12427 37.856 1.68726L37.856 20.8835C37.856 21.4465 37.3997 21.9028 36.8367 21.9028C36.2737 21.9028 35.8174 21.4465 35.8174 20.8835L35.8174 1.68726C35.8174 1.12427 36.2737 0.667969 36.8367 0.667969ZM22.4395 10.2661C23.0024 10.2661 23.4587 10.7224 23.4587 11.2854L23.4587 20.8835C23.4587 21.4465 23.0024 21.9028 22.4395 21.9028C21.8765 21.9028 21.4202 21.4465 21.4202 20.8835L21.4202 11.2854C21.4202 10.7224 21.8765 10.2661 22.4395 10.2661ZM8.04224 29.1016C7.03979 29.1016 6.07837 29.4998 5.36963 30.2085C4.66064 30.9175 4.26245 31.8787 4.26245 32.8811C4.26245 33.4441 3.80615 33.9006 3.24316 33.9006C2.68018 33.9006 2.22388 33.4441 2.22388 32.8811C2.22388 31.3381 2.83691 29.8582 3.92798 28.7671C5.01929 27.6758 6.49902 27.0627 8.04224 27.0627L51.2339 27.0627C52.7769 27.0627 54.2568 27.6758 55.3481 28.7671C56.1958 29.6147 56.7551 30.6973 56.9622 31.8618L65.6311 31.8618C67.1741 31.8618 68.6541 32.4749 69.7454 33.5662C70.8364 34.6572 71.4495 36.1372 71.4495 37.6802L71.4495 47.2783C71.4495 48.8215 70.8364 50.3015 69.7454 51.3926C68.6541 52.4839 67.1741 53.0967 65.6311 53.0967L57.0522 53.0967L57.0522 56.8765C57.0522 60.9653 55.428 64.8865 52.5369 67.7776C49.6458 70.6687 45.7244 72.293 41.6357 72.293L17.6404 72.293C13.5518 72.293 9.63037 70.6687 6.73926 67.7776C3.84814 64.8865 2.22388 60.9653 2.22388 56.8765L2.22388 39.5784C2.22388 39.0154 2.68018 38.5591 3.24316 38.5591C3.80615 38.5591 4.26245 39.0154 4.26245 39.5784L4.26245 56.8765C4.26245 60.4246 5.67188 63.8271 8.18091 66.3362C10.6897 68.845 14.0923 70.2544 17.6404 70.2544L41.6357 70.2544C45.1838 70.2544 48.5864 68.845 51.0952 66.3362C53.604 63.8271 55.0137 60.4246 55.0137 56.8765L55.0137 32.8811C55.0137 31.8787 54.6152 30.9175 53.9065 30.2085C53.1978 29.4998 52.2363 29.1016 51.2339 29.1016L8.04224 29.1016ZM57.0522 51.0581L65.6311 51.0581C66.6335 51.0581 67.595 50.6599 68.3037 49.9512C69.0125 49.2422 69.4106 48.2808 69.4106 47.2783L69.4106 37.6802C69.4106 36.6777 69.0125 35.7166 68.3037 35.0076C67.595 34.2988 66.6335 33.9006 65.6311 33.9006L57.0522 33.9006L57.0522 51.0581Z" fill="#2F2F2F" fill-opacity="1.000000" fill-rule="evenodd"/>
	</g>
</svg>
