<svg width="80.000000" height="80.000000" viewBox="0 0 80 80" fill="none" xmlns="http://www.w3.org/2000/svg" xmlns:xlink="http://www.w3.org/1999/xlink">
	<desc>
			Created with Pixso.
	</desc>
	<defs>
		<clipPath id="clip35_1384">
			<rect width="80.000000" height="80.000000" fill="white" fill-opacity="0"/>
		</clipPath>
	</defs>
	<g clip-path="url(#clip35_1384)">
		<path d="M77 42C77 61.3301 61.3301 77 42 77C22.6699 77 7 61.3301 7 42C7 22.6699 22.6699 7 42 7C61.3301 7 77 22.6699 77 42Z" fill="#FF8922" fill-opacity="1.000000" fill-rule="nonzero"/>
		<path d="M6.02051 21.4521C12.0107 9.89819 24.0823 2 38 2C51.9177 2 63.9893 9.89819 69.9795 21.4521C72.5488 26.4077 74 32.0359 74 38C74 44.4844 72.2847 50.5713 69.2822 55.8284C63.0842 66.6809 51.3975 74 38 74C24.6025 74 12.9158 66.6809 6.71777 55.8284C3.71533 50.5713 2 44.4844 2 38C2 32.0359 3.45117 26.4077 6.02051 21.4521ZM46.2915 70.8381C55.0417 68.6357 62.4392 63.0278 66.9919 55.5032C64.4641 53.2891 61.0432 51.3611 56.958 49.8833C55.668 56.5715 53.3101 62.3953 50.2126 66.6445C49.0217 68.2788 47.7078 69.6958 46.2915 70.8381ZM57.3296 47.7444C61.5796 49.2424 65.2515 51.2334 68.0605 53.6011C70.4883 48.9331 71.8606 43.6282 71.8606 38C71.8606 32.9036 70.7354 28.0725 68.7205 23.7395C65.8889 26.3147 62.0623 28.4751 57.584 30.0833C57.8992 32.6309 58.0657 35.2805 58.0657 38C58.0657 41.376 57.8093 44.6448 57.3296 47.7444ZM55.5122 30.7734C55.7832 33.1018 55.9263 35.5195 55.9263 38C55.9263 41.1423 55.6968 44.1838 55.2681 47.0701C50.4321 45.6069 44.9226 44.7422 39.0696 44.6479L39.0696 33.27C45.021 33.1743 50.6177 32.2817 55.5122 30.7734ZM57.2764 27.9182C61.6243 26.3066 65.1963 24.1826 67.7146 21.7507C63.2461 13.5972 55.5212 7.48511 46.2917 5.16187C47.8735 6.43799 49.3279 8.05737 50.6272 9.9397C53.7874 14.5183 56.1292 20.7776 57.2764 27.9182ZM29.7083 5.16187C20.4788 7.48511 12.7539 13.5972 8.2854 21.7507C10.8037 24.1826 14.3757 26.3066 18.7236 27.9182C19.8708 20.7776 22.2126 14.5183 25.3728 9.9397C26.6721 8.05737 28.1265 6.43799 29.7083 5.16187ZM18.416 30.0833C13.9377 28.4751 10.1111 26.3147 7.27954 23.7395C5.26465 28.0725 4.1394 32.9036 4.1394 38C4.1394 43.6282 5.51172 48.9331 7.93945 53.6011C10.7485 51.2334 14.4204 49.2424 18.6704 47.7444C18.1907 44.6448 17.9343 41.376 17.9343 38C17.9343 35.2805 18.1008 32.6309 18.416 30.0833ZM20.7319 47.0701C20.3032 44.1838 20.0737 41.1423 20.0737 38C20.0737 35.5195 20.2168 33.1018 20.4878 30.7734C25.3823 32.2817 30.979 33.1743 36.9304 33.27L36.9304 44.6479C31.0774 44.7422 25.5679 45.6069 20.7319 47.0701ZM19.042 49.8833C20.332 56.5715 22.6899 62.3953 25.7874 66.6445C26.9783 68.2788 28.2922 69.6958 29.7085 70.8381C20.9583 68.6357 13.5608 63.0278 9.00806 55.5032C11.5359 53.2891 14.9568 51.3611 19.042 49.8833ZM21.0891 49.198C25.7739 47.751 31.1672 46.8833 36.9304 46.7876L36.9304 71.7996C33.5288 71.4111 30.2798 69.176 27.5161 65.3845C24.6045 61.3899 22.323 55.7759 21.0891 49.198ZM39.0696 71.7996C42.4712 71.4111 45.7202 69.176 48.4839 65.3845C51.3955 61.3899 53.677 55.7759 54.9109 49.198C50.2261 47.751 44.8328 46.8833 39.0696 46.7876L39.0696 71.7996ZM36.9304 31.1304C31.0391 31.0325 25.5347 30.1282 20.7783 28.6228C21.8657 21.5647 24.1421 15.489 27.1335 11.155C29.9749 7.03833 33.3699 4.60742 36.9304 4.20044L36.9304 31.1304ZM39.0696 31.1304C44.9609 31.0325 50.4653 30.1282 55.2217 28.6228C54.1343 21.5647 51.8579 15.489 48.8665 11.155C46.0251 7.03833 42.6301 4.60742 39.0696 4.20044L39.0696 31.1304Z" fill="#2F2F2F" fill-opacity="1.000000" fill-rule="evenodd"/>
	</g>
</svg>
