<svg width="52.000000" height="52.000000" viewBox="0 0 52 52" fill="none" xmlns="http://www.w3.org/2000/svg" xmlns:xlink="http://www.w3.org/1999/xlink">
	<desc>
			Created with Pixso.
	</desc>
	<defs>
		<clipPath id="clip51_195">
			<rect id="logos:telegram" width="52.000000" height="52.000000" fill="white" fill-opacity="0"/>
		</clipPath>
		<linearGradient id="paint_linear_51_196_0" x1="2600.000000" y1="0.000000" x2="2600.000000" y2="5200.000000" gradientUnits="userSpaceOnUse">
			<stop stop-color="#2AABEE"/>
			<stop offset="1.000000" stop-color="#229ED9"/>
		</linearGradient>
	</defs>
	<rect id="logos:telegram" width="52.000000" height="52.000000" fill="#FFFFFF" fill-opacity="0"/>
	<g clip-path="url(#clip51_195)">
		<path id="Vector" d="M26 0C19.106 0 12.4883 2.74097 7.61719 7.61523C2.74121 12.4912 0.00146484 19.1042 0 26C0 32.8928 2.74219 39.5107 7.61719 44.3848C12.4883 49.259 19.106 52 26 52C32.894 52 39.5117 49.259 44.3828 44.3848C49.2578 39.5107 52 32.8928 52 26C52 19.1072 49.2578 12.4893 44.3828 7.61523C39.5117 2.74097 32.894 0 26 0Z" fill="url(#paint_linear_51_196_0)" fill-opacity="1.000000" fill-rule="nonzero"/>
		<path id="Vector" d="M11.769 25.7253C19.3496 22.4233 24.4033 20.2463 26.9302 19.1946C34.1533 16.1912 35.6523 15.6694 36.6313 15.6519C36.8467 15.6482 37.3262 15.7014 37.6387 15.9543C37.8989 16.1677 37.9722 16.4561 38.0083 16.6587C38.041 16.8611 38.0859 17.322 38.0493 17.6819C37.6592 21.7932 35.9648 31.77 35.104 36.3748C34.7422 38.3232 34.0234 38.9763 33.3286 39.0403C31.8174 39.1792 30.6719 38.0425 29.209 37.084C26.9219 35.5837 25.6299 34.6501 23.4077 33.1865C20.8403 31.4949 22.5059 30.5649 23.9688 29.0457C24.3506 28.6479 31.0049 22.5969 31.1309 22.0479C31.147 21.9792 31.1631 21.7234 31.0088 21.5884C30.8584 21.4531 30.6353 21.4995 30.4727 21.5361C30.2412 21.5881 26.5889 24.0044 19.5039 28.7849C18.4678 29.4973 17.5293 29.8447 16.6846 29.8264C15.7583 29.8066 13.9707 29.3015 12.6421 28.8701C11.0171 28.3408 9.72119 28.0608 9.83496 27.1619C9.89209 26.6938 10.5381 26.2148 11.769 25.7253Z" fill="#FFFFFF" fill-opacity="1.000000" fill-rule="nonzero"/>
	</g>
</svg>
