<svg width="225.000000" height="42.000000" viewBox="0 0 225 42" fill="none" xmlns="http://www.w3.org/2000/svg" xmlns:xlink="http://www.w3.org/1999/xlink">
	<desc>
			Created with Pixso.
	</desc>
	<defs>
		<clipPath id="clip8_193">
			<rect id="logo" width="225.000000" height="42.000000" fill="white" fill-opacity="0"/>
		</clipPath>
		<linearGradient id="paint_linear_8_195_0" x1="126.000000" y1="19.000000" x2="225.000000" y2="19.000000" gradientUnits="userSpaceOnUse">
			<stop stop-color="#E55116"/>
			<stop offset="1.000000" stop-color="#FF8922"/>
		</linearGradient>
	</defs>
	<g clip-path="url(#clip8_193)">
		<path id="kvokka" d="M19.456 15.504L14.136 22.154C13.9333 22.458 13.68 22.762 13.376 23.066C13.072 23.3447 12.806 23.56 12.578 23.712L12.578 23.788C12.806 23.94 13.072 24.1933 13.376 24.548C13.68 24.8773 13.9333 25.2193 14.136 25.574L20.064 34.162L14.858 34.162L8.056 23.598L14.25 15.504L19.456 15.504ZM7.182 7.562L7.22 18.924C7.22 19.76 7.16933 20.558 7.068 21.318C6.992 22.078 6.878 22.8507 6.726 23.636C6.85267 24.3707 6.954 25.1307 7.03 25.916C7.13133 26.7013 7.182 27.436 7.182 28.12L7.182 34.162L2.584 34.162L2.584 7.562L7.182 7.562ZM10.032 22.23L10.032 25.194L5.7 25.194L5.7 22.23L10.032 22.23ZM40.8913 15.504L34.4693 33.06C34.3426 33.3893 34.1399 33.6553 33.8613 33.858C33.6079 34.0607 33.2913 34.162 32.9113 34.162L28.8833 34.162C28.5286 34.162 28.2119 34.0607 27.9333 33.858C27.6546 33.6553 27.4519 33.3893 27.3253 33.06L20.9033 15.504L25.8053 15.504L29.7193 27.74C29.8966 28.2973 30.0613 28.8673 30.2133 29.45C30.3653 30.0073 30.5046 30.552 30.6313 31.084L31.1253 31.084C31.3026 30.5267 31.4673 29.9693 31.6193 29.412C31.7966 28.8547 31.9613 28.2973 32.1133 27.74L36.0273 15.504L40.8913 15.504ZM52.1001 15.048C54.3801 15.048 56.1914 15.3647 57.5341 15.998C58.9021 16.6313 59.8774 17.67 60.4601 19.114C61.0681 20.558 61.3721 22.4707 61.3721 24.852C61.3721 27.2333 61.0681 29.146 60.4601 30.59C59.8774 32.0087 58.9021 33.0473 57.5341 33.706C56.1914 34.3393 54.3801 34.656 52.1001 34.656C49.8707 34.656 48.0721 34.3393 46.7041 33.706C45.3614 33.0473 44.3861 32.0087 43.7781 30.59C43.1701 29.146 42.8661 27.2333 42.8661 24.852C42.8661 22.4707 43.1701 20.558 43.7781 19.114C44.3861 17.67 45.3614 16.6313 46.7041 15.998C48.0721 15.3647 49.8707 15.048 52.1001 15.048ZM52.1001 18.544C50.9854 18.544 50.0987 18.734 49.4401 19.114C48.8067 19.4687 48.3507 20.102 48.0721 21.014C47.7934 21.926 47.6541 23.2053 47.6541 24.852C47.6541 26.4987 47.7934 27.778 48.0721 28.69C48.3507 29.602 48.8067 30.2353 49.4401 30.59C50.0987 30.9447 50.9854 31.122 52.1001 31.122C53.2401 31.122 54.1394 30.9447 54.7981 30.59C55.4567 30.2353 55.9127 29.602 56.1661 28.69C56.4447 27.778 56.5841 26.4987 56.5841 24.852C56.5841 23.2053 56.4447 21.926 56.1661 21.014C55.9127 20.102 55.4567 19.4687 54.7981 19.114C54.1394 18.734 53.2401 18.544 52.1001 18.544ZM82.579 15.504L77.259 22.154C77.0564 22.458 76.803 22.762 76.499 23.066C76.195 23.3447 75.929 23.56 75.701 23.712L75.701 23.788C75.929 23.94 76.195 24.1933 76.499 24.548C76.803 24.8773 77.0564 25.2193 77.259 25.574L83.187 34.162L77.981 34.162L71.179 23.598L77.373 15.504L82.579 15.504ZM70.305 7.562L70.343 18.924C70.343 19.76 70.2924 20.558 70.191 21.318C70.1151 22.078 70.001 22.8507 69.849 23.636C69.9757 24.3707 70.077 25.1307 70.153 25.916C70.2544 26.7013 70.305 27.436 70.305 28.12L70.305 34.162L65.707 34.162L65.707 7.562L70.305 7.562ZM73.155 22.23L73.155 25.194L68.823 25.194L68.823 22.23L73.155 22.23ZM103.026 15.504L97.7063 22.154C97.5036 22.458 97.2503 22.762 96.9463 23.066C96.6423 23.3447 96.3763 23.56 96.1483 23.712L96.1483 23.788C96.3763 23.94 96.6423 24.1933 96.9463 24.548C97.2503 24.8773 97.5036 25.2193 97.7063 25.574L103.634 34.162L98.4283 34.162L91.6263 23.598L97.8203 15.504L103.026 15.504ZM90.7523 7.562L90.7903 18.924C90.7903 19.76 90.7396 20.558 90.6383 21.318C90.5623 22.078 90.4483 22.8507 90.2963 23.636C90.423 24.3707 90.5243 25.1307 90.6003 25.916C90.7016 26.7013 90.7523 27.436 90.7523 28.12L90.7523 34.162L86.1543 34.162L86.1543 7.562L90.7523 7.562ZM93.6023 22.23L93.6023 25.194L89.2703 25.194L89.2703 22.23L93.6023 22.23ZM115.988 15.048C117.482 15.048 118.736 15.2507 119.75 15.656C120.788 16.036 121.574 16.6947 122.106 17.632C122.638 18.5693 122.904 19.8613 122.904 21.508L122.904 34.162L119.256 34.162L118.61 30.134L118.268 29.602L118.268 21.47C118.268 20.482 118.04 19.7727 117.584 19.342C117.128 18.886 116.254 18.658 114.962 18.658C113.999 18.658 112.783 18.696 111.314 18.772C109.87 18.848 108.413 18.9493 106.944 19.076L106.526 15.922C107.412 15.7447 108.413 15.5927 109.528 15.466C110.642 15.3393 111.77 15.238 112.91 15.162C114.05 15.086 115.076 15.048 115.988 15.048ZM120.928 22.686L120.89 25.536L112.34 25.536C111.58 25.5613 111.035 25.764 110.706 26.144C110.376 26.524 110.212 27.0433 110.212 27.702L110.212 28.728C110.212 29.488 110.414 30.0707 110.82 30.476C111.225 30.856 111.858 31.046 112.72 31.046C113.404 31.046 114.164 30.9067 115 30.628C115.836 30.3493 116.659 29.944 117.47 29.412C118.306 28.88 119.053 28.2467 119.712 27.512L119.712 29.906C119.458 30.286 119.091 30.742 118.61 31.274C118.128 31.7807 117.533 32.2873 116.824 32.794C116.14 33.3007 115.342 33.7187 114.43 34.048C113.543 34.3773 112.555 34.542 111.466 34.542C110.351 34.542 109.35 34.352 108.464 33.972C107.577 33.5667 106.88 32.984 106.374 32.224C105.867 31.4387 105.614 30.476 105.614 29.336L105.614 27.36C105.614 25.8907 106.095 24.7507 107.058 23.94C108.046 23.104 109.388 22.686 111.086 22.686L120.928 22.686Z" fill="#2F2F2F" fill-opacity="1.000000" fill-rule="evenodd"/>
		<path id=".work" d="M131.13 28.956C131.763 28.956 132.194 29.0827 132.422 29.336C132.675 29.564 132.802 29.982 132.802 30.59L132.802 32.49C132.802 33.1233 132.675 33.5667 132.422 33.82C132.194 34.048 131.763 34.162 131.13 34.162L129.876 34.162C129.268 34.162 128.837 34.048 128.584 33.82C128.331 33.5667 128.204 33.1233 128.204 32.49L128.204 30.59C128.204 29.982 128.331 29.564 128.584 29.336C128.837 29.0827 129.268 28.956 129.876 28.956L131.13 28.956ZM165.36 15.504L160.42 32.946C160.319 33.3007 160.116 33.592 159.812 33.82C159.508 34.048 159.154 34.162 158.748 34.162L155.062 34.162C154.657 34.162 154.29 34.0353 153.96 33.782C153.631 33.5287 153.441 33.1867 153.39 32.756L150.92 21.318C150.819 20.8113 150.73 20.3047 150.654 19.798C150.604 19.2913 150.528 18.7847 150.426 18.278L149.932 18.278C149.856 18.7847 149.768 19.2913 149.666 19.798C149.59 20.3047 149.502 20.8113 149.4 21.318L146.968 32.756C146.892 33.1867 146.69 33.5287 146.36 33.782C146.056 34.0353 145.689 34.162 145.258 34.162L141.61 34.162C141.205 34.162 140.85 34.048 140.546 33.82C140.242 33.592 140.052 33.3007 139.976 32.946L134.998 15.504L139.672 15.504L142.788 28.31C142.89 28.7913 142.978 29.2853 143.054 29.792C143.156 30.2733 143.244 30.7547 143.32 31.236L143.776 31.236C143.903 30.7547 144.004 30.2733 144.08 29.792C144.182 29.2853 144.283 28.7913 144.384 28.31L146.854 16.91C146.93 16.5047 147.108 16.1753 147.386 15.922C147.69 15.6433 148.07 15.504 148.526 15.504L151.87 15.504C152.276 15.504 152.63 15.6433 152.934 15.922C153.238 16.1753 153.428 16.5173 153.504 16.948L155.974 28.31C156.05 28.7913 156.139 29.2727 156.24 29.754C156.367 30.2353 156.468 30.7293 156.544 31.236L157 31.236C157.102 30.7293 157.19 30.248 157.266 29.792C157.342 29.3107 157.444 28.8167 157.57 28.31L160.686 15.504L165.36 15.504ZM176.987 15.048C179.267 15.048 181.078 15.3647 182.421 15.998C183.789 16.6313 184.764 17.67 185.347 19.114C185.955 20.558 186.259 22.4707 186.259 24.852C186.259 27.2333 185.955 29.146 185.347 30.59C184.764 32.0087 183.789 33.0473 182.421 33.706C181.078 34.3393 179.267 34.656 176.987 34.656C174.757 34.656 172.959 34.3393 171.591 33.706C170.248 33.0473 169.273 32.0087 168.665 30.59C168.057 29.146 167.753 27.2333 167.753 24.852C167.753 22.4707 168.057 20.558 168.665 19.114C169.273 17.67 170.248 16.6313 171.591 15.998C172.959 15.3647 174.757 15.048 176.987 15.048ZM176.987 18.544C175.872 18.544 174.985 18.734 174.327 19.114C173.693 19.4687 173.237 20.102 172.959 21.014C172.68 21.926 172.541 23.2053 172.541 24.852C172.541 26.4987 172.68 27.778 172.959 28.69C173.237 29.602 173.693 30.2353 174.327 30.59C174.985 30.9447 175.872 31.122 176.987 31.122C178.127 31.122 179.026 30.9447 179.685 30.59C180.343 30.2353 180.799 29.602 181.053 28.69C181.331 27.778 181.471 26.4987 181.471 24.852C181.471 23.2053 181.331 21.926 181.053 21.014C180.799 20.102 180.343 19.4687 179.685 19.114C179.026 18.734 178.127 18.544 176.987 18.544ZM194.166 15.504L194.774 19.152L195.192 19.684L195.192 34.162L190.594 34.162L190.594 15.504L194.166 15.504ZM203.286 15.048L202.83 19.304L201.5 19.304C200.512 19.304 199.511 19.4687 198.498 19.798C197.484 20.1273 196.218 20.6213 194.698 21.28L194.394 18.582C195.711 17.4673 197.054 16.606 198.422 15.998C199.79 15.3647 201.107 15.048 202.374 15.048L203.286 15.048ZM223.274 15.504L217.954 22.154C217.752 22.458 217.498 22.762 217.194 23.066C216.89 23.3447 216.624 23.56 216.396 23.712L216.396 23.788C216.624 23.94 216.89 24.1933 217.194 24.548C217.498 24.8773 217.752 25.2193 217.954 25.574L223.882 34.162L218.676 34.162L211.874 23.598L218.068 15.504L223.274 15.504ZM211 7.562L211.038 18.924C211.038 19.76 210.988 20.558 210.886 21.318C210.81 22.078 210.696 22.8507 210.544 23.636C210.671 24.3707 210.772 25.1307 210.848 25.916C210.95 26.7013 211 27.436 211 28.12L211 34.162L206.402 34.162L206.402 7.562L211 7.562ZM213.85 22.23L213.85 25.194L209.518 25.194L209.518 22.23L213.85 22.23Z" fill="url(#paint_linear_8_195_0)" fill-opacity="1.000000" fill-rule="evenodd"/>
	</g>
</svg>
