<svg width="80.000000" height="80.000000" viewBox="0 0 80 80" fill="none" xmlns="http://www.w3.org/2000/svg" xmlns:xlink="http://www.w3.org/1999/xlink">
	<desc>
			Created with Pixso.
	</desc>
	<defs>
		<clipPath id="clip35_1400">
			<rect id="iconoir:pc-check" width="80.000000" height="80.000000" fill="white" fill-opacity="0"/>
		</clipPath>
	</defs>
	<rect id="iconoir:pc-check" width="80.000000" height="80.000000" fill="#FFFFFF" fill-opacity="0"/>
	<g clip-path="url(#clip35_1400)">
		<path id="Vector" d="M25.7524 74.0571L58.2605 74.0571L25.7524 74.0571Z" fill="#FF8922" fill-opacity="1.000000" fill-rule="nonzero"/>
		<path id="Vector (Stroke)" d="M24.6096 74.0571C24.6096 73.426 25.1213 72.9143 25.7524 72.9143L58.2605 72.9143C58.8916 72.9143 59.4033 73.426 59.4033 74.0571C59.4033 74.6882 58.8916 75.2 58.2605 75.2L25.7524 75.2C25.1213 75.2 24.6096 74.6882 24.6096 74.0571Z" fill="#FF8922" fill-opacity="1.000000" fill-rule="evenodd"/>
		<path id="Vector" d="M9.49854 57.8032L9.49854 15.543C9.49854 13.8186 10.1836 12.1648 11.4028 10.9456C12.6221 9.72632 14.2759 9.04126 16.0002 9.04126L68.0129 9.04126C69.7371 9.04126 71.3909 9.72632 72.6101 10.9456C73.8293 12.1648 74.5144 13.8186 74.5144 15.543L74.5144 57.8032C74.5144 59.5276 73.8293 61.1812 72.6101 62.4004C71.3909 63.6199 69.7371 64.3047 68.0129 64.3047L16.0002 64.3047C14.2759 64.3047 12.6221 63.6199 11.4028 62.4004C10.1836 61.1812 9.49854 59.5276 9.49854 57.8032Z" fill="#FF8922" fill-opacity="1.000000" fill-rule="nonzero"/>
		<path id="Vector (Stroke)" d="M20.6348 70.9587C20.6348 70.3486 21.1294 69.854 21.7395 69.854L54.2476 69.854C54.8577 69.854 55.3523 70.3486 55.3523 70.9587C55.3523 71.5688 54.8577 72.0635 54.2476 72.0635L21.7395 72.0635C21.1294 72.0635 20.6348 71.5688 20.6348 70.9587Z" fill="#2F2F2F" fill-opacity="1.000000" fill-rule="evenodd"/>
		<path id="Vector (Stroke)" d="M11.9873 7.04761C10.5559 7.04761 9.18311 7.61621 8.17114 8.62842C7.15894 9.64038 6.59033 11.0132 6.59033 12.4446C6.59033 13.0547 6.0957 13.5493 5.4856 13.5493C4.87549 13.5493 4.38086 13.0547 4.38086 12.4446C4.38086 10.4272 5.18213 8.49243 6.60864 7.06592C8.03516 5.6394 9.96997 4.83813 11.9873 4.83813L64 4.83813C66.0173 4.83813 67.9519 5.6394 69.3784 7.06592C70.8049 8.49243 71.6062 10.4272 71.6062 12.4446L71.6062 45.2317C71.6062 45.842 71.1116 46.3367 70.5015 46.3367C69.8914 46.3367 69.3967 45.842 69.3967 45.2317L69.3967 12.4446C69.3967 11.0132 68.8281 9.64038 67.8159 8.62842C66.804 7.61621 65.4312 7.04761 64 7.04761L11.9873 7.04761ZM5.4856 20.3938C6.0957 20.3938 6.59033 20.8884 6.59033 21.4985L6.59033 54.7048C6.59033 56.1362 7.15894 57.5088 8.17114 58.521C9.18311 59.533 10.5559 60.1016 11.9873 60.1016L64 60.1016C65.4312 60.1016 66.804 59.533 67.8159 58.521C68.8281 57.5088 69.3967 56.1362 69.3967 54.7048L69.3967 53.1936C69.3967 52.5835 69.8914 52.0889 70.5015 52.0889C71.1116 52.0889 71.6062 52.5835 71.6062 53.1936L71.6062 54.7048C71.6062 56.7222 70.8049 58.6567 69.3784 60.0833C67.9519 61.5098 66.0173 62.311 64 62.311L11.9873 62.311C9.96997 62.311 8.03516 61.5098 6.60864 60.0833C5.18213 58.6567 4.38086 56.7222 4.38086 54.7048L4.38086 21.4985C4.38086 20.8884 4.87549 20.3938 5.4856 20.3938Z" fill="#2F2F2F" fill-opacity="1.000000" fill-rule="evenodd"/>
	</g>
</svg>
