<svg width="80.000000" height="80.000000" viewBox="0 0 80 80" fill="none" xmlns="http://www.w3.org/2000/svg" xmlns:xlink="http://www.w3.org/1999/xlink">
	<desc>
			Created with Pixso.
	</desc>
	<defs>
		<clipPath id="clip35_1431">
			<rect width="80.000000" height="80.000000" fill="white" fill-opacity="0"/>
		</clipPath>
	</defs>
	<rect width="80.000000" height="80.000000" fill="#FFFFFF" fill-opacity="0"/>
	<g clip-path="url(#clip35_1431)">
		<path d="M27.3306 16.625C24.4087 16.625 21.9468 17.6445 19.8818 19.71C17.8164 21.7751 16.7969 24.2371 16.7969 27.1589C16.7969 30.0808 17.8164 32.5425 19.8818 34.6079C21.9468 36.6731 24.4087 37.6926 27.3306 37.6926C30.2524 37.6926 32.7144 36.6731 34.7798 34.6079C36.8452 32.5425 37.8647 30.0808 37.8647 27.1589C37.8647 24.2371 36.8452 21.7751 34.7798 19.71C32.7144 17.6445 30.2524 16.625 27.3306 16.625ZM18.2798 18.1079C20.77 15.6174 23.8081 14.3594 27.3306 14.3594C30.8535 14.3594 33.8916 15.6174 36.3818 18.1079C38.8721 20.5981 40.1304 23.6362 40.1304 27.1589C40.1304 30.6814 38.8721 33.7195 36.3818 36.21C33.8916 38.7002 30.8535 39.9583 27.3306 39.9583C23.8081 39.9583 20.77 38.7002 18.2798 36.21C15.7896 33.7195 14.5312 30.6814 14.5312 27.1589C14.5312 23.6362 15.7896 20.5981 18.2798 18.1079ZM67.4648 17.0244C67.9077 17.4668 67.9077 18.1841 67.4648 18.6265L18.7983 67.2932C18.356 67.7356 17.6387 67.7356 17.1963 67.2932C16.7539 66.8508 16.7539 66.1335 17.1963 65.6912L65.8633 17.0244C66.3057 16.582 67.0225 16.582 67.4648 17.0244ZM57.3306 46.625C54.4087 46.625 51.9468 47.6445 49.8818 49.71C47.8164 51.7751 46.7969 54.2371 46.7969 57.1589C46.7969 60.0808 47.8164 62.5425 49.8818 64.6079C51.9468 66.6731 54.4087 67.6926 57.3306 67.6926C60.2524 67.6926 62.7144 66.6731 64.7798 64.6079C66.8452 62.5425 67.8647 60.0808 67.8647 57.1589C67.8647 54.2371 66.8452 51.7751 64.7798 49.71C62.7144 47.6445 60.2524 46.625 57.3306 46.625ZM48.2798 48.1079C50.77 45.6174 53.8081 44.3594 57.3306 44.3594C60.8535 44.3594 63.8916 45.6174 66.3818 48.1079C68.8721 50.5981 70.1304 53.6362 70.1304 57.1589C70.1304 60.6814 68.8721 63.7195 66.3818 66.21C63.8916 68.7002 60.8535 69.9583 57.3306 69.9583C53.8081 69.9583 50.77 68.7002 48.2798 66.21C45.7896 63.7195 44.5312 60.6814 44.5312 57.1589C44.5312 53.6362 45.7896 50.5981 48.2798 48.1079Z" fill="#FF8922" fill-opacity="1.000000" fill-rule="evenodd"/>
		<path d="M27.3306 16.625C30.2524 16.625 32.7144 17.6445 34.7798 19.71C36.8452 21.7751 37.8647 24.2371 37.8647 27.1589C37.8647 30.0808 36.8452 32.5425 34.7798 34.6079C32.7144 36.6731 30.2524 37.6926 27.3306 37.6926C24.4087 37.6926 21.9468 36.6731 19.8818 34.6079C17.8164 32.5425 16.7969 30.0808 16.7969 27.1589C16.7969 24.2371 17.8164 21.7751 19.8818 19.71C21.9468 17.6445 24.4087 16.625 27.3306 16.625ZM18.2798 18.1079C15.7896 20.5981 14.5312 23.6362 14.5312 27.1589C14.5312 30.6814 15.7896 33.7195 18.2798 36.21C20.77 38.7002 23.8081 39.9583 27.3306 39.9583C30.8535 39.9583 33.8916 38.7002 36.3818 36.21C38.8721 33.7195 40.1304 30.6814 40.1304 27.1589C40.1304 23.6362 38.8721 20.5981 36.3818 18.1079C33.8916 15.6174 30.8535 14.3594 27.3306 14.3594C23.8081 14.3594 20.77 15.6174 18.2798 18.1079ZM67.4648 17.0244C67.0225 16.582 66.3057 16.582 65.8633 17.0244L17.1963 65.6912C16.7539 66.1335 16.7539 66.8508 17.1963 67.2932C17.6387 67.7356 18.356 67.7356 18.7983 67.2932L67.4648 18.6265C67.9077 18.1841 67.9077 17.4668 67.4648 17.0244ZM57.3306 46.625C60.2524 46.625 62.7144 47.6445 64.7798 49.71C66.8452 51.7751 67.8647 54.2371 67.8647 57.1589C67.8647 60.0808 66.8452 62.5425 64.7798 64.6079C62.7144 66.6731 60.2524 67.6926 57.3306 67.6926C54.4087 67.6926 51.9468 66.6731 49.8818 64.6079C47.8164 62.5425 46.7969 60.0808 46.7969 57.1589C46.7969 54.2371 47.8164 51.7751 49.8818 49.71C51.9468 47.6445 54.4087 46.625 57.3306 46.625ZM48.2798 48.1079C45.7896 50.5981 44.5312 53.6362 44.5312 57.1589C44.5312 60.6814 45.7896 63.7195 48.2798 66.21C50.77 68.7002 53.8081 69.9583 57.3306 69.9583C60.8535 69.9583 63.8916 68.7002 66.3818 66.21C68.8721 63.7195 70.1304 60.6814 70.1304 57.1589C70.1304 53.6362 68.8721 50.5981 66.3818 48.1079C63.8916 45.6174 60.8535 44.3594 57.3306 44.3594C53.8081 44.3594 50.77 45.6174 48.2798 48.1079Z" stroke="#FF8922" stroke-opacity="1.000000" stroke-width="1.000000"/>
		<path d="M25 14.4661C22.0781 14.4661 19.6162 15.4856 17.5513 17.551C15.4858 19.6162 14.4663 22.0781 14.4663 25C14.4663 27.9219 15.4858 30.3835 17.5513 32.449C19.6162 34.5142 22.0781 35.5337 25 35.5337C27.9219 35.5337 30.3838 34.5142 32.4492 32.449C34.5146 30.3835 35.5342 27.9219 35.5342 25C35.5342 22.0781 34.5146 19.6162 32.4492 17.551C30.3838 15.4856 27.9219 14.4661 25 14.4661ZM15.9492 15.949C18.4395 13.4585 21.4775 12.2004 25 12.2004C28.5229 12.2004 31.561 13.4585 34.0513 15.949C36.5415 18.4392 37.7998 21.4773 37.7998 25C37.7998 28.5225 36.5415 31.5605 34.0513 34.051C31.561 36.5413 28.5229 37.7993 25 37.7993C21.4775 37.7993 18.4395 36.5413 15.9492 34.051C13.459 31.5605 12.2007 28.5225 12.2007 25C12.2007 21.4773 13.459 18.4392 15.9492 15.949ZM65.1348 14.8655C65.5771 15.3079 65.5771 16.0251 65.1348 16.4675L16.4678 65.1343C16.0254 65.5767 15.3081 65.5767 14.8657 65.1343C14.4233 64.6919 14.4233 63.9746 14.8657 63.5322L63.5327 14.8655C63.9751 14.4231 64.6919 14.4231 65.1348 14.8655ZM55 44.4661C52.0781 44.4661 49.6162 45.4856 47.5513 47.551C45.4858 49.6162 44.4663 52.0781 44.4663 55C44.4663 57.9219 45.4858 60.3835 47.5513 62.449C49.6162 64.5142 52.0781 65.5337 55 65.5337C57.9219 65.5337 60.3838 64.5142 62.4492 62.449C64.5146 60.3835 65.5342 57.9219 65.5342 55C65.5342 52.0781 64.5146 49.6162 62.4492 47.551C60.3838 45.4856 57.9219 44.4661 55 44.4661ZM45.9492 45.949C48.4395 43.4585 51.4775 42.2004 55 42.2004C58.5229 42.2004 61.561 43.4585 64.0513 45.949C66.5415 48.4392 67.7998 51.4773 67.7998 55C67.7998 58.5225 66.5415 61.5605 64.0513 64.051C61.561 66.5413 58.5229 67.7993 55 67.7993C51.4775 67.7993 48.4395 66.5413 45.9492 64.051C43.459 61.5605 42.2007 58.5225 42.2007 55C42.2007 51.4773 43.459 48.4392 45.9492 45.949Z" fill="#2F2F2F" fill-opacity="1.000000" fill-rule="evenodd"/>
	</g>
</svg>
