<svg width="80.000000" height="80.000000" viewBox="0 0 80 80" fill="none" xmlns="http://www.w3.org/2000/svg" xmlns:xlink="http://www.w3.org/1999/xlink">
	<desc>
			Created with Pixso.
	</desc>
	<defs>
		<clipPath id="clip35_1394">
			<rect width="80.000000" height="80.000000" fill="white" fill-opacity="0"/>
		</clipPath>
	</defs>
	<rect width="80.000000" height="80.000000" fill="#FFFFFF" fill-opacity="0"/>
	<g clip-path="url(#clip35_1394)">
		<path d="M43.7168 42.7168C39.2891 42.7168 35.499 41.1404 32.3457 37.9873C29.1929 34.8342 27.6162 31.0439 27.6162 26.6162C27.6162 22.1885 29.1929 18.3982 32.3457 15.2451C35.499 12.092 39.2891 10.5156 43.7168 10.5156C48.1445 10.5156 51.9351 12.092 55.0879 15.2451C58.2412 18.3982 59.8174 22.1885 59.8174 26.6162C59.8174 31.0439 58.2412 34.8342 55.0879 37.9873C51.9351 41.1404 48.1445 42.7168 43.7168 42.7168ZM11.5156 74.9182L11.5156 63.6477C11.5156 61.3667 12.1035 59.2698 13.2788 57.3564C14.4541 55.4431 16.0132 53.9846 17.9561 52.981C22.1152 50.9014 26.3418 49.3411 30.6353 48.2998C34.9287 47.2585 39.2891 46.7393 43.7168 46.7419C48.1445 46.7419 52.5054 47.2627 56.7988 48.3037C61.0923 49.345 65.3184 50.9041 69.478 52.981C71.4233 53.9873 72.9839 55.447 74.1592 57.3604C75.3345 59.2737 75.9209 61.3694 75.918 63.6477L75.918 74.9182L11.5156 74.9182Z" fill="#FF8922" fill-opacity="1.000000" fill-rule="nonzero"/>
		<path d="M39 7.1665C34.938 7.1665 31.4946 8.59692 28.5962 11.4954C25.6973 14.394 24.2671 17.8372 24.2671 21.8992C24.2671 25.9612 25.6973 29.4045 28.5962 32.303C31.4946 35.2017 34.938 36.6318 39 36.6318C43.062 36.6318 46.5049 35.2017 49.4038 32.303C52.3022 29.4045 53.7324 25.9612 53.7324 21.8992C53.7324 17.8372 52.3022 14.394 49.4038 11.4954C46.5049 8.59692 43.062 7.1665 39 7.1665ZM26.6616 9.56079C30.0688 6.15332 34.2065 4.43066 39 4.43066C43.793 4.43066 47.9307 6.15332 51.3384 9.56079C54.7456 12.9685 56.4683 17.106 56.4683 21.8992C56.4683 26.6926 54.7456 30.8301 51.3384 34.2375C47.9307 37.645 43.793 39.3677 39 39.3677C34.2065 39.3677 30.0688 37.645 26.6616 34.2375C23.2539 30.8301 21.5312 26.6926 21.5312 21.8992C21.5312 17.106 23.2539 12.9685 26.6616 9.56079ZM38.999 43.3928C34.6802 43.3904 30.4277 43.8967 26.2402 44.9121C22.0552 45.927 17.9282 47.4495 13.8589 49.4834C12.147 50.3694 10.7739 51.6511 9.72705 53.3555C8.68652 55.0498 8.1665 56.8984 8.1665 58.9307L8.1665 68.3142C8.1665 68.6008 8.39893 68.8333 8.68555 68.8333L55.6978 68.8333C56.4536 68.8333 57.0659 69.4456 57.0659 70.2012C57.0659 70.9565 56.4536 71.5691 55.6978 71.5691L8.68555 71.5691C6.8877 71.5691 5.43066 70.1118 5.43066 68.3142L5.43066 58.9307C5.43066 56.4011 6.08643 54.0557 7.396 51.9233C8.69824 49.8037 10.4404 48.1699 12.6108 47.0486L12.6191 47.0444L12.627 47.0405C16.8735 44.9172 21.1968 43.3201 25.5957 42.2534C29.9951 41.1865 34.4644 40.6543 39.0005 40.657C43.5366 40.6572 48.0049 41.1907 52.4038 42.2573C56.8022 43.324 61.1255 44.9197 65.3721 47.0403L65.3809 47.0444L65.3892 47.0491C67.5615 48.1726 69.3057 49.8076 70.6079 51.9272C71.9175 54.0598 72.5718 56.4045 72.5688 58.9324L72.5688 68.3142C72.5688 70.1118 71.1118 71.5691 69.3145 71.5691L66.1694 71.5691C65.4141 71.5691 64.8018 70.9565 64.8018 70.2012C64.8018 69.4456 65.4141 68.8333 66.1694 68.8333L69.3145 68.8333C69.6011 68.8333 69.833 68.6008 69.833 68.3142L69.833 58.929C69.8354 56.9001 69.3174 55.0535 68.2764 53.3594C67.23 51.6553 65.8555 50.3721 64.1406 49.4834C60.0718 47.4521 55.9448 45.9312 51.7593 44.9163C47.5713 43.9006 43.3193 43.3928 39 43.3928L38.999 43.3928Z" fill="#2F2F2F" fill-opacity="1.000000" fill-rule="evenodd"/>
	</g>
</svg>
