<svg width="80.000000" height="80.000000" viewBox="0 0 80 80" fill="none" xmlns="http://www.w3.org/2000/svg" xmlns:xlink="http://www.w3.org/1999/xlink">
	<desc>
			Created with Pixso.
	</desc>
	<defs>
		<clipPath id="clip35_1372">
			<rect width="80.000000" height="80.000000" fill="white" fill-opacity="0"/>
		</clipPath>
	</defs>
	<rect width="80.000000" height="80.000000" fill="#FFFFFF" fill-opacity="0"/>
	<g clip-path="url(#clip35_1372)">
		<path d="M56.5127 8C55.5237 8 54.7222 8.80005 54.7222 9.78711L54.7222 14.1001L30.2778 14.1001L30.2778 9.78711C30.2778 8.80005 29.4763 8 28.4873 8L25.957 8C24.9683 8 24.1667 8.80005 24.1667 9.78711L24.1667 14.1001L21.1111 14.1001Q19.8875 14.0986 18.8342 14.5212L18.8342 14.5212Q17.7202 14.9685 16.7966 15.8904Q15.8713 16.814 15.4226 17.9294L15.4226 17.9294L15.4226 17.9294Q15 18.9797 15 20.2L15 62.8999C14.998 64.5754 15.5959 66.011 16.7937 67.2065Q17.7134 68.1248 18.8232 68.573Q19.8809 69 21.1111 69L63.8889 69C65.5674 69.002 67.0056 68.4053 68.2034 67.2097C69.4011 66.0142 70 64.5774 70 62.8999L70 20.2C70.002 18.5244 69.4041 17.0891 68.2063 15.8933Q67.2866 14.9751 66.1768 14.5271Q65.1191 14.1001 63.8889 14.1001L60.8333 14.1001L60.8333 9.78711C60.8333 8.80005 60.0317 8 59.043 8L56.5127 8Z" fill="#FF8922" fill-opacity="1.000000" fill-rule="evenodd"/>
		<path d="M23.4177 7.03784C23.2043 7.03784 23.0312 7.21069 23.0312 7.42432L23.0312 10.9963L26.9895 10.9963L26.9895 7.42432C26.9895 7.21069 26.8164 7.03784 26.603 7.03784L23.4177 7.03784ZM29.0271 10.9963L29.0271 7.42432C29.0271 6.08545 27.9419 5 26.603 5L23.4177 5C22.0791 5 20.9937 6.08545 20.9937 7.42432L20.9937 10.9963L19.0159 10.9963C19.0156 10.9963 19.0156 10.9963 19.0154 10.9963C17.0955 10.9939 15.4255 11.6899 14.0613 13.0544C12.6965 14.4192 12 16.0898 12 18.0112L12 59.9844C11.9978 61.9043 12.6938 63.5742 14.0581 64.9387C15.4226 66.3032 17.0933 67 19.0146 67L60.9841 67C62.9043 67.0024 64.5742 66.3064 65.9387 64.9417C67.3035 63.5771 68 61.9065 68 59.9849L68 57.467C68 56.9043 67.5439 56.448 66.9812 56.448C66.4185 56.448 65.9624 56.9043 65.9624 57.467L65.9624 59.9849C65.9624 61.3613 65.4839 62.5149 64.498 63.5007C63.5122 64.4866 62.3601 64.9639 60.9866 64.9622L19.0146 64.9622C17.6384 64.9622 16.4849 64.4836 15.499 63.4978C14.5132 62.512 14.0359 61.3596 14.0376 59.9861L14.0376 59.9856L14.0376 28.0947L65.9624 28.0947L65.9624 49.7725C65.9624 50.3352 66.4185 50.7915 66.9812 50.7915C67.5439 50.7915 68 50.3352 68 49.7725L68 18.0125C68.0024 16.0923 67.3064 14.4221 65.9419 13.0576C64.5774 11.6929 62.9067 10.9963 60.9854 10.9963L59.0063 10.9963L59.0063 7.42432C59.0063 6.08545 57.9209 5 56.5823 5L53.397 5C52.0581 5 50.9729 6.08545 50.9729 7.42432L50.9729 10.9963L29.0271 10.9963ZM53.0105 10.9963L56.9688 10.9963L56.9688 7.42432C56.9688 7.21069 56.7957 7.03784 56.5823 7.03784L53.397 7.03784C53.1836 7.03784 53.0105 7.21069 53.0105 7.42432L53.0105 10.9963ZM65.9624 26.0571L65.9624 18.01C65.9641 16.6365 65.4868 15.4844 64.501 14.4985C63.5151 13.5127 62.3616 13.0339 60.9854 13.0339L19.0134 13.0339C17.6399 13.0322 16.4878 13.5095 15.502 14.4954C14.5161 15.4814 14.0376 16.635 14.0376 18.0112L14.0376 26.0571L65.9624 26.0571Z" fill="#2F2F2F" fill-opacity="1.000000" fill-rule="evenodd"/>
	</g>
</svg>
