<svg width="80.000000" height="80.000000" viewBox="0 0 80 80" fill="none" xmlns="http://www.w3.org/2000/svg" xmlns:xlink="http://www.w3.org/1999/xlink">
	<desc>
			Created with Pixso.
	</desc>
	<defs>
		<clipPath id="clip35_1410">
			<rect width="80.000000" height="80.000000" fill="white" fill-opacity="0"/>
		</clipPath>
	</defs>
	<rect width="80.000000" height="80.000000" fill="#FFFFFF" fill-opacity="0"/>
	<g clip-path="url(#clip35_1410)">
		<path d="M26.5356 44.7612C26.4067 45.7 27.1362 46.5366 28.0837 46.5366L58.1882 46.5366C59.1282 46.5366 59.8552 45.7129 59.7388 44.7803L59.2961 41.2388C59.1982 40.4568 58.5337 39.8699 57.7456 39.8699L28.5706 39.8699C27.79 39.8699 27.1292 40.4463 27.0227 41.2197L26.5356 44.7612ZM18.2478 69.8699C17.3013 69.8699 16.572 69.0347 16.6997 68.0967L20.3003 41.6431C20.428 40.7051 19.6987 39.8699 18.752 39.8699L10.7798 39.8699C9.7417 39.8699 8.99219 38.8765 9.27734 37.8782L15.0513 17.6699C15.2429 16.999 15.856 16.5366 16.5535 16.5366L69.6963 16.5366C70.394 16.5366 71.0071 16.999 71.1987 17.6699L76.9727 37.8782C77.2578 38.8765 76.5083 39.8699 75.4702 39.8699L67.5764 39.8699C66.6313 39.8699 65.9026 40.7021 66.0276 41.6389L69.5557 68.1011C69.6807 69.0376 68.9519 69.8699 68.0071 69.8699L64.4907 69.8699C63.7085 69.8699 63.0469 69.2915 62.9421 68.5166L61.0576 54.5566C60.9531 53.7817 60.2915 53.2034 59.5093 53.2034L26.7407 53.2034C25.9585 53.2034 25.2969 53.7817 25.1921 54.5566L23.3076 68.5166C23.2031 69.2915 22.5415 69.8699 21.7593 69.8699L18.2478 69.8699Z" fill="#FF8922" fill-opacity="1.000000" fill-rule="nonzero"/>
		<path d="M10.8005 14.1814C11.1311 13.0244 12.1887 12.2266 13.3921 12.2266L66.5349 12.2266C67.7383 12.2266 68.7959 13.0244 69.1265 14.1814L74.9004 34.3896C75.3923 36.1116 74.0996 37.8254 72.3088 37.8254L64.4148 37.8254C64.155 37.8254 63.9546 38.0544 63.989 38.312L66.3972 56.3738C66.48 56.9939 66.0442 57.5637 65.4241 57.6462C64.804 57.729 64.2341 57.2932 64.1514 56.6731L61.7432 38.6113C61.5278 36.9956 62.7849 35.5598 64.4148 35.5598L72.3088 35.5598C72.5942 35.5598 72.8003 35.2866 72.7219 35.0122L66.9482 14.8037C66.8955 14.6194 66.7268 14.4922 66.5349 14.4922L13.3921 14.4922C13.2002 14.4922 13.0317 14.6194 12.979 14.8037L11.1599 21.1707C10.988 21.7722 10.3611 22.1204 9.75952 21.9485C9.15796 21.7766 8.80957 21.1497 8.98145 20.5481L10.8005 14.1814ZM9.19141 23.9368C9.79297 24.1086 10.1414 24.7356 9.96948 25.3372L7.20508 35.0122C7.12671 35.2866 7.33276 35.5598 7.61841 35.5598L15.5906 35.5598C17.2236 35.5598 18.4817 37.0005 18.2612 38.6187L14.6606 65.0723C14.6255 65.3303 14.8262 65.5598 15.0864 65.5598L18.5979 65.5598C18.813 65.5598 18.9949 65.4009 19.0237 65.1877L20.9082 51.228C21.0886 49.8909 22.23 48.8933 23.5793 48.8933L56.3479 48.8933C57.697 48.8933 58.8384 49.8909 59.0188 51.228L60.9036 65.1877C60.9321 65.4009 61.1143 65.5598 61.3293 65.5598L64.8455 65.5598C65.1055 65.5598 65.3059 65.3311 65.2715 65.0735L64.8076 61.595C64.7251 60.9749 65.1606 60.405 65.7808 60.3225C66.4009 60.2397 66.9707 60.6755 67.0535 61.2957L67.5173 64.7739C67.7327 66.3899 66.4756 67.8254 64.8455 67.8254L61.3293 67.8254C59.98 67.8254 58.8386 66.8279 58.6582 65.4907L56.7737 51.531C56.7449 51.3179 56.563 51.1589 56.3479 51.1589L23.5793 51.1589C23.3643 51.1589 23.1821 51.3179 23.1536 51.531L21.2688 65.4907C21.0884 66.8279 19.947 67.8254 18.5979 67.8254L15.0864 67.8254C13.4534 67.8254 12.1956 66.3848 12.4158 64.7666L16.0164 38.3132C16.0515 38.0552 15.8511 37.8254 15.5906 37.8254L7.61841 37.8254C5.82764 37.8254 4.53467 36.1116 5.02661 34.3896L7.79102 24.7148C7.96289 24.1133 8.58984 23.7649 9.19141 23.9368ZM22.739 37.8879C22.9226 36.554 24.0625 35.5598 25.4092 35.5598L54.5842 35.5598C55.9436 35.5598 57.0901 36.572 57.2588 37.9209L57.7014 41.4626C57.9026 43.0713 56.6482 44.4922 55.0269 44.4922L24.9224 44.4922C23.2878 44.4922 22.0295 43.0491 22.252 41.4297L22.739 37.8879ZM25.4092 37.8254C25.1946 37.8254 25.0127 37.9839 24.9836 38.1968L24.4966 41.7383C24.4612 41.9966 24.6616 42.2266 24.9224 42.2266L55.0269 42.2266C55.2854 42.2266 55.4854 42 55.4534 41.7437L55.0105 38.2019C54.9836 37.9868 54.801 37.8254 54.5842 37.8254L25.4092 37.8254Z" fill="#2F2F2F" fill-opacity="1.000000" fill-rule="evenodd"/>
	</g>
</svg>
