<svg width="80.000000" height="80.000000" viewBox="0 0 80 80" fill="none" xmlns="http://www.w3.org/2000/svg" xmlns:xlink="http://www.w3.org/1999/xlink">
	<desc>
			Created with Pixso.
	</desc>
	<defs>
		<clipPath id="clip35_1425">
			<rect width="80.000000" height="80.000000" fill="white" fill-opacity="0"/>
		</clipPath>
	</defs>
	<rect width="80.000000" height="80.000000" fill="#FFFFFF" fill-opacity="0"/>
	<g clip-path="url(#clip35_1425)">
		<path d="M65.605 39.7395C65.0579 40.2866 65.0579 41.1738 65.605 41.7209L74.7473 50.8633C75.2944 51.4104 75.2944 52.2979 74.7468 52.8447L72.2773 55.3125C71.7302 55.8594 70.8435 55.8591 70.2964 55.312L61.1565 46.1694C60.6094 45.6223 59.7222 45.6221 59.175 46.1692L50.0325 55.312C49.4854 55.8591 48.5984 55.8591 48.0513 55.312L45.5842 52.8447C45.0371 52.2976 45.0371 51.4106 45.5842 50.8635L54.7268 41.7209C55.2739 41.1738 55.2739 40.2866 54.7266 39.7395L45.584 30.5996C45.0369 30.0527 45.0366 29.1658 45.5835 28.6187L48.0513 26.1492C48.5984 25.6018 49.4856 25.6016 50.0327 26.1489L59.175 35.291C59.7222 35.8384 60.6094 35.8381 61.1565 35.291L70.2961 26.1487C70.8433 25.6016 71.7302 25.6016 72.2773 26.1487L74.7476 28.6187C75.2947 29.1658 75.2947 30.053 74.7473 30.5999L65.605 39.7395Z" fill="#FF8922" fill-opacity="1.000000" fill-rule="nonzero"/>
		<path d="M20.1409 53.7241C19.8782 53.4612 19.5217 53.3137 19.1501 53.3137L7.49609 53.3137C6.66162 53.3137 5.86157 52.9822 5.27148 52.3923C4.68164 51.8022 4.3501 51.0022 4.3501 50.1677L4.3501 31.2922C4.3501 30.4578 4.68164 29.6577 5.27148 29.0676C5.86157 28.4778 6.66162 28.1462 7.49609 28.1462L19.1501 28.1462C19.5217 28.1462 19.8782 27.9988 20.1409 27.7361L36.5637 11.313C37.4463 10.4304 38.9553 11.0557 38.9553 12.3037L38.9553 15.7356L38.9553 69.1562C38.9553 70.4045 37.4463 71.0295 36.5637 70.147L20.1409 53.7241Z" fill="#FF8922" fill-opacity="1.000000" fill-rule="nonzero"/>
		<path d="M36.6821 9.50269C36.6821 9.14136 36.2454 8.96045 35.9897 9.21606L19.7144 25.4915C19.2373 25.9685 18.5903 26.2366 17.9158 26.2366L6.29199 26.2366C5.74121 26.2366 5.21289 26.4553 4.82349 26.8447C4.43384 27.2344 4.21509 27.7625 4.21509 28.3132L4.21509 47.189C4.21509 47.7397 4.43384 48.2678 4.82349 48.6575C5.21289 49.0469 5.74121 49.2656 6.29199 49.2656L17.9158 49.2656C18.5903 49.2656 19.2373 49.5337 19.7144 50.0107L35.9897 66.2861C36.2454 66.5417 36.6821 66.3608 36.6821 65.9995L36.6821 9.50269ZM34.4778 7.7041C36.0803 6.10156 38.8203 7.23657 38.8203 9.50269L38.8203 65.9995C38.8203 68.2656 36.0803 69.4006 34.4778 67.7981L18.2024 51.5227C18.1265 51.4468 18.0232 51.4038 17.9158 51.4038L6.29199 51.4038C5.17407 51.4038 4.10205 50.96 3.31152 50.1694C2.521 49.3789 2.0769 48.3069 2.0769 47.189L2.0769 28.3132C2.0769 27.1953 2.521 26.1233 3.31152 25.3328C4.10205 24.5422 5.17407 24.0981 6.29199 24.0981L17.9158 24.0981C18.0232 24.0981 18.1265 24.0554 18.2024 23.9795L34.4778 7.7041ZM71.1804 23.9775C71.0222 23.8193 70.7654 23.8193 70.6069 23.9775L61.5715 33.0156C60.5781 34.0093 58.9673 34.0093 57.9739 33.0159L48.9358 23.9778C48.7773 23.8193 48.5205 23.8196 48.3623 23.978L45.9988 26.343C45.8406 26.5015 45.8406 26.7583 45.999 26.9165L55.0374 35.9521C56.031 36.9456 56.031 38.5564 55.0376 39.55L45.999 48.5884C45.8408 48.7468 45.8408 49.0034 45.999 49.1619L48.3621 51.5247C48.5203 51.6831 48.7771 51.6831 48.9355 51.5247L57.9739 42.4863C58.9673 41.4929 60.5781 41.4929 61.5715 42.4866L70.6074 51.5249C70.7656 51.6833 71.0225 51.6833 71.1807 51.5251L73.5459 49.1616C73.7043 49.0032 73.7043 48.7463 73.5459 48.5879L64.5081 39.55C63.5144 38.5564 63.5146 36.9456 64.5083 35.9521L73.5461 26.917C73.7046 26.7585 73.7046 26.5017 73.5461 26.3433L71.1804 23.9775ZM69.0947 22.4658C70.0881 21.4722 71.699 21.4722 72.6924 22.4656L75.0581 24.8313C76.0518 25.825 76.0515 27.4358 75.0579 28.429L66.02 37.4644C65.8616 37.6228 65.8616 37.8796 66.02 38.0381L75.0581 47.0759C76.0518 48.0696 76.0513 49.6807 75.0574 50.6741L72.6921 53.0376C71.6987 54.0305 70.0884 54.03 69.0952 53.0366L60.0593 43.9983C59.9011 43.8398 59.6443 43.8398 59.4858 43.9983L50.4475 53.0366C49.4541 54.03 47.8435 54.03 46.8501 53.0366L44.4871 50.6738C43.4937 49.6804 43.4937 48.0698 44.4871 47.0764L53.5256 38.0381C53.6838 37.8796 53.6838 37.6228 53.5254 37.4644L44.4873 28.4287C43.4939 27.4355 43.4934 25.8252 44.4863 24.8315L46.8499 22.4666C47.843 21.4724 49.4541 21.4722 50.4478 22.4658L59.4858 31.5039C59.6443 31.6624 59.9011 31.6624 60.0593 31.5039L69.0947 22.4658Z" fill="#2F2F2F" fill-opacity="1.000000" fill-rule="evenodd"/>
	</g>
</svg>
