<svg width="80.000000" height="80.000000" viewBox="0 0 80 80" fill="none" xmlns="http://www.w3.org/2000/svg" xmlns:xlink="http://www.w3.org/1999/xlink">
	<desc>
			Created with Pixso.
	</desc>
	<defs>
		<clipPath id="clip35_1389">
			<rect width="80.000000" height="80.000000" fill="white" fill-opacity="0"/>
		</clipPath>
	</defs>
	<rect width="80.000000" height="80.000000" fill="#FFFFFF" fill-opacity="0"/>
	<g clip-path="url(#clip35_1389)">
		<path d="M42.407 66.2048C42.0205 66.2048 41.6584 66.145 41.3203 66.0251C40.9824 65.9055 40.6685 65.6997 40.3787 65.408L9.66455 34.6938C9.08496 34.1143 8.80688 33.4268 8.82983 32.6309C8.85303 31.835 9.15552 31.1704 9.73682 30.6372C14.228 26.5806 19.2747 23.49 24.8767 21.365C30.4785 19.2402 36.322 18.1777 42.407 18.1777C48.4919 18.1777 54.3352 19.2402 59.9373 21.365C65.5393 23.49 70.5857 26.5806 75.0769 30.6372C75.6565 31.1685 75.9587 31.833 75.9839 32.6309C76.009 33.4287 75.731 34.1162 75.1494 34.6938L44.4353 65.408C44.1455 65.6978 43.8315 65.9036 43.4937 66.0251C43.1555 66.147 42.7932 66.2068 42.407 66.2048Z" fill="#FF8922" fill-opacity="1.000000" fill-rule="nonzero"/>
		<path d="M37.585 17.8042C31.6177 17.8042 25.8926 18.8455 20.4041 20.9275C14.9189 23.0081 9.97852 26.033 5.57788 30.0071C5.19629 30.3582 5.00781 30.7695 4.99243 31.3013C4.97729 31.8171 5.14478 32.2451 5.53882 32.6392L36.2542 63.3547L36.2554 63.3557C36.4563 63.5581 36.6475 63.675 36.8274 63.7388C37.0518 63.8184 37.302 63.8618 37.585 63.8618L37.5874 63.8618L37.5898 63.8618C37.8696 63.8633 38.1165 63.8203 38.3381 63.7405C38.5217 63.6743 38.7153 63.5552 38.917 63.3535L41.4089 60.8616C41.7935 60.4771 42.417 60.4771 42.8015 60.8616C43.186 61.2461 43.186 61.8696 42.8015 62.2542L40.3096 64.7461C39.9319 65.124 39.4976 65.4163 39.0051 65.5935C38.5515 65.7568 38.0747 65.8335 37.5825 65.8313C37.0938 65.8311 36.6204 65.7549 36.1697 65.5952C35.6738 65.4194 35.2378 65.1255 34.8594 64.7451C34.8591 64.7446 34.8586 64.7441 34.8582 64.7437L4.14624 34.032C3.38135 33.2671 2.99243 32.3196 3.02368 31.2439C3.05469 30.1848 3.46997 29.2681 4.24951 28.5532L4.2522 28.5508L4.25488 28.5481C8.83618 24.4104 13.9878 21.2549 19.7056 19.0859C25.4209 16.9182 31.3828 15.8347 37.585 15.8347C43.7874 15.8347 49.7493 16.9182 55.4646 19.0859C61.1821 21.2549 66.334 24.4104 70.915 28.5481L70.9177 28.5505L70.9204 28.553C71.699 29.2666 72.113 30.1831 72.1462 31.2415C72.1802 32.3198 71.7913 33.2688 71.0229 34.033C71.0225 34.0332 71.022 34.0337 71.0215 34.0342L46.4988 58.5571C46.114 58.9417 45.4907 58.9417 45.106 58.5571C44.7214 58.1726 44.7214 57.5491 45.106 57.1646L69.6323 32.6382L69.6335 32.637C70.0271 32.2461 70.1941 31.8201 70.1777 31.3035C70.1609 30.7673 69.9712 30.3555 69.5923 30.0071C65.1917 26.033 60.2512 23.0081 54.7661 20.9275C49.2773 18.8455 43.5525 17.8042 37.585 17.8042Z" fill="#2F2F2F" fill-opacity="1.000000" fill-rule="evenodd"/>
	</g>
</svg>
